<?xml version="1.0" encoding="utf-8"?>
<!-- Generator: Adobe Illustrator 25.0.1, SVG Export Plug-In . SVG Version: 6.00 Build 0)  -->
<svg version="1.1" id="Слой_1" xmlns="http://www.w3.org/2000/svg" xmlns:xlink="http://www.w3.org/1999/xlink" x="0px" y="0px"
	 viewBox="0 0 217.071 98.245" style="enable-background:new 0 0 217.071 98.245;" xml:space="preserve">
<style type="text/css">
	.st0{fill:#FFFFFF;}
	.st1{fill:#FF6900;}
</style>
<g>
	<g>
		<g>
			<path class="st0" d="M106.115,54.732H93.533c-1.445,0-2.227,0.993-2.227,2.198v14.389c0,1.415,1.023,2.227,2.288,2.227
				c1.234,0,2.227-0.813,2.227-2.227V59.097h8.037v12.221c0,1.415,0.993,2.227,2.258,2.227c1.234,0,2.258-0.843,2.258-2.258V56.929
				C108.373,55.725,107.561,54.732,106.115,54.732z"/>
			<path class="st0" d="M128.03,54.732h-0.18c-1.324,0-2.198,0.662-3.131,1.987l-7.345,10.415V56.959
				c0-1.415-0.903-2.227-2.137-2.227c-1.264,0-2.197,0.813-2.197,2.227v13.877c0,1.505,0.963,2.529,2.498,2.529h0.211
				c1.415,0,2.318-0.722,3.191-1.987l7.345-10.415v10.174c0,1.415,0.903,2.228,2.167,2.228c1.234,0,2.167-0.813,2.167-2.228V57.26
				C130.619,55.695,129.686,54.732,128.03,54.732z"/>
			<path class="st0" d="M153.135,69h-1.144V56.779c0-1.415-1.023-2.228-2.288-2.228c-1.234,0-2.228,0.813-2.228,2.228V69h-7.826
				V56.779c0-1.415-0.963-2.228-2.258-2.228c-1.264,0-2.257,0.813-2.257,2.228v14.389c0,1.204,0.813,2.197,2.227,2.197h13.546v1.987
				c0,1.415,0.963,2.227,2.197,2.227c1.264,0,2.227-0.813,2.227-2.227v-4.124C155.332,69.752,154.46,69,153.135,69z"/>
			<path class="st0" d="M175.742,69h-1.144V56.779c0-1.415-1.023-2.228-2.288-2.228c-1.234,0-2.228,0.813-2.228,2.228V69h-7.826
				V56.779c0-1.415-0.963-2.228-2.258-2.228c-1.264,0-2.257,0.813-2.257,2.228v14.389c0,1.204,0.813,2.197,2.227,2.197h13.546v1.987
				c0,1.415,0.963,2.227,2.197,2.227c1.264,0,2.227-0.813,2.227-2.227v-4.124C177.939,69.752,177.066,69,175.742,69z"/>
			<path class="st0" d="M197.747,70.204l-6.141-13.365c-0.693-1.475-1.656-2.107-3.04-2.107h-0.241c-1.445,0-2.408,0.632-3.1,2.107
				l-6.141,13.365c-0.602,1.324-0.181,2.498,1.023,2.95c1.083,0.422,2.167,0.181,2.769-1.083l1.385-2.92
				c1.234,0.422,2.769,0.632,4.214,0.632c1.535,0,2.89-0.211,4.033-0.632l1.325,2.89c0.572,1.264,1.746,1.505,2.799,1.113
				C197.837,72.702,198.318,71.468,197.747,70.204z M188.475,65.779c-0.933,0-1.927-0.12-2.679-0.331l2.619-5.839l2.619,5.839
				C190.311,65.659,189.408,65.779,188.475,65.779z"/>
		</g>
		<g>
			<path class="st0" d="M111.534,39.148h-1.144V27.077c0-1.204-0.813-2.197-2.227-2.197H97.838c-1.204,0-2.017,0.813-2.017,2.227
				v2.92c0,2.107-0.03,3.732-0.391,5.478c-0.361,1.716-0.813,2.769-1.475,3.642h-0.511c-1.445,0-2.137,0.903-2.137,2.198v4.154
				c0,1.415,0.963,2.227,2.198,2.227c1.264,0,2.227-0.813,2.227-2.227v-1.987h13.576v1.987c0,1.415,0.963,2.227,2.197,2.227
				c1.264,0,2.227-0.813,2.227-2.227v-4.154C113.731,40.051,113.039,39.148,111.534,39.148z M105.875,39.148H98.56
				c0.452-0.963,0.813-1.836,1.114-3.16c0.301-1.385,0.422-2.77,0.452-4.576l0.03-2.167h5.719V39.148z"/>
			<path class="st0" d="M124.328,24.729c-5.388,0-9.542,4.064-9.542,9.482c0,5.478,4.154,9.482,9.542,9.482
				c5.388,0,9.542-4.154,9.542-9.542C133.87,28.733,129.716,24.729,124.328,24.729z M124.328,39.449
				c-2.95,0-5.087-2.228-5.087-5.268c0-2.98,2.137-5.208,5.087-5.208c2.98,0,5.087,2.227,5.087,5.208
				C129.415,37.221,127.398,39.449,124.328,39.449z"/>
			<path class="st0" d="M167.224,24.729c-5.388,0-9.542,4.064-9.542,9.482c0,5.478,4.154,9.482,9.542,9.482
				c5.388,0,9.542-4.154,9.542-9.542C176.766,28.733,172.612,24.729,167.224,24.729z M167.224,39.449
				c-2.95,0-5.087-2.228-5.087-5.268c0-2.98,2.138-5.208,5.087-5.208c2.98,0,5.087,2.227,5.087,5.208
				C172.311,37.221,170.294,39.449,167.224,39.449z"/>
			<path class="st0" d="M154.58,39.148h-1.144V27.077c0-1.204-0.813-2.197-2.227-2.197h-10.325c-1.204,0-2.017,0.813-2.017,2.227
				v2.92c0,2.107-0.03,3.732-0.391,5.478c-0.361,1.716-0.813,2.769-1.475,3.642h-0.512c-1.445,0-2.137,0.903-2.137,2.198v4.154
				c0,1.415,0.963,2.227,2.198,2.227c1.264,0,2.227-0.813,2.227-2.227v-1.987h13.576v1.987c0,1.415,0.963,2.227,2.197,2.227
				c1.264,0,2.227-0.813,2.227-2.227v-4.154C156.778,40.051,156.085,39.148,154.58,39.148z M148.921,39.148h-7.315
				c0.452-0.963,0.813-1.836,1.114-3.16c0.301-1.385,0.422-2.77,0.452-4.576l0.03-2.167h5.719V39.148z"/>
		</g>
	</g>
	<g>
		<path class="st1" d="M46.061,18.964c17.564,0,31.053,12.082,31.053,30.013c0,18.027-13.489,30.305-31.053,30.305H26.363
			c-3.979,0-7.279-2.631-7.279-7.21V26.466c0-4.58,3.3-7.503,7.279-7.503H46.061z"/>
		<path d="M32.789,50.568c0-5.555-1.778-10.606-1.194-13.77l-0.142-0.183c-2.023,2.111-3.339,1.553-3.482,0.873
			c-0.288-1.361,2.08-3.027,3.433-3.606c0.026-0.089,0.061-0.182,0.098-0.276c-1.266,0.195-2.753,0.035-2.805-0.871
			c-0.061-1.074,2.095-2.033,4.913-1.795c0.053-0.045,0.108-0.09,0.163-0.135c-0.177-0.071-0.367-0.159-0.604-0.281
			c-0.728-0.375-0.905-0.998-0.667-1.451c0.261-0.498,1.058-0.692,1.704-0.678c1.014,0.021,1.877,0.267,2.508,0.523
			c0.071-0.03,0.143-0.06,0.211-0.086c-0.234-0.183-0.438-0.382-0.557-0.586c-0.174-0.299-0.217-0.71,0.12-0.976
			c0.394-0.311,1.394-0.421,2.298,0.4c0.187,0.169,0.345,0.334,0.488,0.492c0.101-0.019,0.202-0.039,0.304-0.055
			c-0.149-0.23-0.268-0.47-0.306-0.693c-0.053-0.305,0.047-0.633,0.405-0.749c0.391-0.127,0.886,0.074,1.143,0.455
			c0.275,0.408,0.444,0.91,0.55,1.267c-1.993,0.232-7.279,1.439-7.279,7.828c0,6.23,5.176,12.775,5.176,22.432
			c-0.008,3.509-0.782,7.029-3.963,11.129c-2.456,3.166-6.358,6.221-12.442,8.729c1.043,0.509,2.237,0.777,3.501,0.777h2.187
			c5.033-2.788,7.531-5.344,9.262-7.742c3.375,1.504,6.622,2.15,9.548,2.15c5.486,0,10.162-2.527,12.6-7.034
			c2.509-1.506,4.173-4.602,4.278-6.814c1.563-1.966,1.852-4.448,1.372-6.123c-0.115-0.399-0.439-0.411-1.001-0.069
			c-4.943,2.964-9.73,4.375-14.298,4.375c-2.77,0-5.611-0.44-8.634-1.315c-0.216-3.24-0.881-5.957-1.129-7.604
			c-0.353-2.175,0.149-3.784,2.536-3.784c1.751,0,4.991,0.445,7.58,1.622c2.564,1.166,4.09,3.461,5.156,3.461
			c0.433,0,0.888-0.269,0.888-1.185c0-1.856-0.662-4.844-1.485-5.909c2.399-0.137,4.305-0.112,5.377,0.009
			c2.234,0.388,2.339,1.509,2.779,2.24c0.44,0.731,1.186,1.049,2.083,1.049c1.661,0,2.697-0.857,2.697-3.95
			c0-6.794-4.289-10.087-8.787-10.087c-3.693,0-5.119,0.812-8.626,0.812c-2.488,0-4.549-5.062-7.376-5.727
			c-1.249-2.777-4.049-3.09-5.774-1.695c-1.566-0.953-4.015-0.439-4.116,1.32c-1.802-0.558-4.129,0.414-3.126,2.782
			c-4.406,0.125-5.228,4.021-2.238,4.456c-3.849,2.178-2.09,5.94,1.14,5.14c0.228,2.672,1.311,6.986,1.311,9.965
			c0,4.143-1.879,5.105-4.448,5.105c-2.03,0-5.01-0.737-7.029-1.313v2.889c2.043,0.508,5.107,1.16,7.406,1.16
			C30.543,57.467,32.789,55.092,32.789,50.568z M41.716,59.953c2.773,0.77,6.606,1.181,9.786,0.958
			c5.589-0.392,9.785-2.473,12.147-3.988c-1.419,3.584-6.741,5.81-11.901,6.44c-0.033,0.261-0.072,0.516-0.119,0.762
			c3.871-0.206,7.547-1.464,9.213-2.613c-0.953,3.525-5.688,4.942-9.986,5.146c-0.121,0.277-0.249,0.538-0.381,0.786
			c2.503,0.045,4.9-0.419,6.328-0.869c-1.285,2.453-5.72,4.391-10.237,4.391c-2.22,0-4.99-0.433-7.394-1.577
			C40.909,66.211,41.578,62.954,41.716,59.953z M52.896,40.081c0.609-1.815,1.138-3.184,2.126-4.228
			c1.041-1.1,2.197-1.444,4.735-1.444c3.505,0,6.433,3.543,6.433,8.495c0,0.736-0.988,0.731-1.305,0.058
			c-1.192-2.105-2.807-2.408-5.351-2.595c-1.877-0.11-4.141,0.049-6.203,0.137C52.946,40.524,52.838,40.255,52.896,40.081z"/>
		<path d="M19.084,65.117c2.118-0.421,4.202-0.811,4.202-0.811l0.266-1.142c-0.956-0.048-2.852-0.026-4.468,0.018V65.117z"/>
		<path class="st0" d="M41.911,31.019c0.74-0.249,1.803,0.481,2.372,1.625c0.569,1.144,0.429,2.278-0.311,2.522
			c-0.734,0.26-1.792-0.47-2.364-1.62c-0.077-0.155-0.138-0.309-0.189-0.461l0.129-0.036c0.237,0.225,0.52,0.287,0.709,0.166
			c0.26-0.171,0.233-0.625,0.013-1.017c-0.157-0.321-0.52-0.657-0.82-0.632l-0.052-0.068C41.51,31.269,41.68,31.099,41.911,31.019
			 M47.098,42.531c-3.314-0.728-6.941-1.69-8.875-4.533c-0.036-0.053-0.102-0.077-0.164-0.059c-0.061,0.017-0.105,0.073-0.108,0.137
			c-0.007,0.155,0.014,0.325,0.049,0.494l-0.262,0.099c-0.51-0.718-0.614-1.59-0.108-2.217c0.728-0.902,2.205-0.81,3.087-0.253
			l-0.112,0.243c-0.473-0.079-0.924-0.079-1.276,0.135c-0.299,0.182-0.34,0.452-0.156,0.794c1.606,2.985,6.276,3.633,11.825,3.201
			c0.573-0.045,0.705-0.303,0.779-0.579c0.482-1.922,1.356-3.636,2.657-4.942c-1.012,0.142-1.953,0.174-2.774,0.219
			c-2.866,0.181-4.505-0.195-5.017-0.604l0.093-0.249c0.305,0.105,0.622,0.129,0.687,0.039c0.089-0.121,0.021-0.197-0.119-0.32
			c-0.544-0.51-2.989-3.016-2.984-3.002c-0.264-2.119-3.35-2.196-4.58-0.111l-0.418-0.112c0.122-0.457,0.305-0.83,0.475-1.101
			c-2.577,0.582-4.043,2.895-4.309,5.129c-1.142,9.603,13.422,7.384,17.585,11.23c0.079,0.062,0.277,0.344,0.419,0.166
			C53.654,45.812,51.82,43.576,47.098,42.531"/>
		<path class="st0" d="M63.645,56.917c-2.361,1.514-6.561,3.598-12.147,3.99c-3.178,0.223-7.016-0.19-9.787-0.96
			c-0.043,0.924-0.136,1.878-0.295,2.841c1.562,0.401,4.343,0.931,8.355,1.045c-0.179,1.079-1.274,4.74-4.078,7.107
			c5.111,0.214,9.742-1.773,11.104-4.371c-1.428,0.45-3.826,0.914-6.328,0.869c0.132-0.247,0.26-0.509,0.381-0.786
			c4.296-0.203,9.033-1.623,9.986-5.146c-1.666,1.148-5.345,2.407-9.213,2.613c0.047-0.246,0.086-0.5,0.119-0.762
			C56.901,62.728,62.227,60.498,63.645,56.917z"/>
	</g>
</g>
</svg>
